%TF.GenerationSoftware,KiCad,Pcbnew,10.0.6*%
%TF.CreationDate,2026-09-13T22:32:59+02:00*%
%TF.ProjectId,fairyboard_plate,66616972-7962-46f6-9172-645f706c6174,rev?*%
%TF.SameCoordinates,Original*%
%TF.FileFunction,Profile,NP*%
%FSLAX46Y46*%
G04 Gerber Fmt 4.6, Leading zero omitted, Abs format (unit mm)*
G04 Created by KiCad (PCBNEW 10.0.6) date 2026-09-13 22:32:59*
%MOMM*%
%LPD*%
G01*
G04 APERTURE LIST*
%TA.AperFunction,Profile*%
%ADD10C,0.100000*%
%TD*%
G04 APERTURE END LIST*
D10*
X174915081Y-91609258D02*
X185046749Y-50973893D01*
X59137582Y-76096008D02*
X59164582Y-76277709D01*
X59138581Y-75913408D02*
X59137582Y-76096008D01*
X59164582Y-76277709D02*
X59219582Y-76455409D01*
X59168581Y-75730809D02*
X59168581Y-75735708D01*
X59168581Y-75735708D02*
X59138581Y-75913408D01*
X59219582Y-76455409D02*
X59301581Y-76619509D01*
X59301581Y-76619509D02*
X59408581Y-76769909D01*
X59408581Y-76769909D02*
X59537581Y-76902708D01*
X59537581Y-76902708D02*
X59686582Y-77011109D01*
X59686582Y-77011109D02*
X59849581Y-77096009D01*
X59849581Y-77096009D02*
X60025581Y-77153708D01*
X60025581Y-77153708D02*
X76325582Y-81218108D01*
X63339581Y-74176909D02*
X66677582Y-60786309D01*
X66677582Y-60786309D02*
X80068582Y-64125109D01*
X67935581Y-55741409D02*
X71274581Y-42350709D01*
X68313581Y-39054009D02*
X59168581Y-75730809D01*
X68371582Y-38879209D02*
X68313581Y-39054009D01*
X68456582Y-38715209D02*
X68371582Y-38879209D01*
X68567582Y-38566708D02*
X68456582Y-38715209D01*
X68698581Y-38437809D02*
X68567582Y-38566708D01*
X68848581Y-38331409D02*
X68698581Y-38437809D01*
X69013581Y-38247409D02*
X68848581Y-38331409D01*
X69189581Y-38191709D02*
X69013581Y-38247409D01*
X69371582Y-38165409D02*
X69189581Y-38191709D01*
X69556581Y-38167309D02*
X69371582Y-38165409D01*
X69734582Y-38196609D02*
X69556581Y-38167309D01*
X69738582Y-38196608D02*
X69734582Y-38196609D01*
X71274581Y-42350709D02*
X84664582Y-45689609D01*
X73459581Y-97187849D02*
X73486581Y-97370459D01*
X73461581Y-97003279D02*
X73459581Y-97187849D01*
X73486581Y-97370459D02*
X73542581Y-97545269D01*
X73491581Y-96822609D02*
X73461581Y-97003279D01*
X73542581Y-97545269D02*
X73624581Y-97712259D01*
X73624581Y-97712259D02*
X73732582Y-97859719D01*
X73732582Y-97859719D02*
X73861582Y-97992529D01*
X73861582Y-97992529D02*
X74009582Y-98103859D01*
X74009582Y-98103859D02*
X74172582Y-98187849D01*
X74172582Y-98187849D02*
X74347582Y-98246439D01*
X74347582Y-98246439D02*
X92589582Y-102794289D01*
X76325582Y-81218108D02*
X76412582Y-81241509D01*
X76412582Y-81241509D02*
X76576581Y-81312809D01*
X76576581Y-81312809D02*
X76725581Y-81413408D01*
X76725581Y-81413408D02*
X76854581Y-81538409D01*
X76729582Y-77515809D02*
X63339581Y-74176909D01*
X76854581Y-81538409D02*
X76959582Y-81683909D01*
X76959582Y-81683909D02*
X77037581Y-81845109D01*
X77037581Y-81845109D02*
X77087581Y-82016908D01*
X77071582Y-82461308D02*
X73491581Y-96822609D01*
X77087581Y-82016908D02*
X77106581Y-82196609D01*
X77094582Y-82374408D02*
X77071582Y-82461308D01*
X77106581Y-82196609D02*
X77094582Y-82374408D01*
X77662582Y-95268704D02*
X81001581Y-81878109D01*
X80068582Y-64125109D02*
X76729582Y-77515809D01*
X81001581Y-81878109D02*
X94390581Y-85216949D01*
X81326581Y-59079209D02*
X67935581Y-55741409D01*
X82258582Y-76833109D02*
X85597581Y-63442509D01*
X84664582Y-45689609D02*
X81326581Y-59079209D01*
X85597581Y-63442509D02*
X98987582Y-66781409D01*
X86038582Y-42261108D02*
X69738582Y-38196608D01*
X86040581Y-42263008D02*
X86038582Y-42261108D01*
X86127581Y-42284508D02*
X86040581Y-42263008D01*
X86307581Y-42303109D02*
X86127581Y-42284508D01*
X86486582Y-42287408D02*
X86307581Y-42303109D01*
X86661582Y-42239609D02*
X86486582Y-42287408D01*
X86824582Y-42162409D02*
X86661582Y-42239609D01*
X86855581Y-58396609D02*
X90193581Y-45007009D01*
X86972582Y-42057009D02*
X86824582Y-42162409D01*
X87098581Y-41927109D02*
X86972582Y-42057009D01*
X87199581Y-41778709D02*
X87098581Y-41927109D01*
X87236581Y-41697608D02*
X87199581Y-41778709D01*
X87291581Y-41533508D02*
X87236581Y-41697608D01*
X87376582Y-41371409D02*
X87291581Y-41533508D01*
X87486581Y-41224009D02*
X87376582Y-41371409D01*
X87617581Y-41094109D02*
X87486581Y-41224009D01*
X87768581Y-40985708D02*
X87617581Y-41094109D01*
X87933582Y-40903709D02*
X87768581Y-40985708D01*
X88109582Y-40848008D02*
X87933582Y-40903709D01*
X88290581Y-40821609D02*
X88109582Y-40848008D01*
X88475582Y-40823609D02*
X88290581Y-40821609D01*
X88656582Y-40852909D02*
X88475582Y-40823609D01*
X90193581Y-45007009D02*
X103584582Y-48345808D01*
X91052581Y-98606598D02*
X77662582Y-95268704D01*
X92589582Y-102794289D02*
X92771581Y-102823589D01*
X92771581Y-102823589D02*
X92955581Y-102826518D01*
X92955581Y-102826518D02*
X93137582Y-102800149D01*
X93137582Y-102800149D02*
X93314582Y-102744489D01*
X93314582Y-102744489D02*
X93478581Y-102662458D01*
X93478581Y-102662458D02*
X93628581Y-102554059D01*
X93628581Y-102554059D02*
X93760581Y-102424169D01*
X93760581Y-102424169D02*
X93869582Y-102275739D01*
X93869582Y-102275739D02*
X93954582Y-102114598D01*
X93954582Y-102114598D02*
X94013581Y-101937848D01*
X94013581Y-101937848D02*
X96021582Y-93886087D01*
X94390581Y-85216949D02*
X91052581Y-98606598D01*
X95648582Y-80171009D02*
X82258582Y-76833109D01*
X96021582Y-93886087D02*
X96042581Y-93799172D01*
X96042581Y-93799172D02*
X96115582Y-93635111D01*
X96115582Y-93635111D02*
X96216581Y-93486672D01*
X96216581Y-93486672D02*
X96341582Y-93356789D01*
X96341582Y-93356789D02*
X96486582Y-93251318D01*
X96486582Y-93251318D02*
X96647582Y-93172219D01*
X96647582Y-93172219D02*
X96820582Y-93124368D01*
X96820582Y-93124368D02*
X96997581Y-93105809D01*
X96997581Y-93105809D02*
X97177582Y-93116558D01*
X97177582Y-93116558D02*
X97264581Y-93137059D01*
X97264581Y-93137059D02*
X113565181Y-97204448D01*
X98637581Y-89676909D02*
X101976581Y-76286308D01*
X98987582Y-66781409D02*
X95648582Y-80171009D01*
X100245581Y-61735508D02*
X86855581Y-58396609D01*
X101976581Y-76286308D02*
X115366482Y-79625109D01*
X103234581Y-71241409D02*
X106573581Y-57850709D01*
X103584582Y-48345808D02*
X100245581Y-61735508D01*
X104958581Y-44917309D02*
X88656582Y-40852909D01*
X105045581Y-44937809D02*
X104958581Y-44917309D01*
X105224581Y-44951509D02*
X105045581Y-44937809D01*
X105402581Y-44933008D02*
X105224581Y-44951509D01*
X105574581Y-44883109D02*
X105402581Y-44933008D01*
X105736581Y-44806009D02*
X105574581Y-44883109D01*
X105881581Y-44700509D02*
X105736581Y-44806009D01*
X106005581Y-44570609D02*
X105881581Y-44700509D01*
X106106581Y-44422209D02*
X106005581Y-44570609D01*
X106179581Y-44258108D02*
X106106581Y-44422209D01*
X106200581Y-44171208D02*
X106179581Y-44258108D01*
X106573581Y-57850709D02*
X119963082Y-61189609D01*
X107831581Y-52805809D02*
X111170582Y-39415209D01*
X108208582Y-36117508D02*
X106200581Y-44171208D01*
X108267581Y-35942708D02*
X108208582Y-36117508D01*
X108352581Y-35778708D02*
X108267581Y-35942708D01*
X108462581Y-35630209D02*
X108352581Y-35778708D01*
X108593581Y-35500309D02*
X108462581Y-35630209D01*
X108743581Y-35394908D02*
X108593581Y-35500309D01*
X108908581Y-35312809D02*
X108743581Y-35394908D01*
X109084581Y-35257208D02*
X108908581Y-35312809D01*
X109266582Y-35230809D02*
X109084581Y-35257208D01*
X109450582Y-35230809D02*
X109266582Y-35230809D01*
X109633581Y-35262109D02*
X109450582Y-35230809D01*
X111170582Y-39415209D02*
X124559781Y-42754009D01*
X112028582Y-93014799D02*
X98637581Y-89676909D01*
X113565181Y-97204448D02*
X113746881Y-97232769D01*
X113746881Y-97232769D02*
X113931382Y-97235699D01*
X113931382Y-97235699D02*
X114113981Y-97206399D01*
X114113981Y-97206399D02*
X114289782Y-97150739D01*
X114289782Y-97150739D02*
X114454882Y-97068708D01*
X114454882Y-97068708D02*
X114604282Y-96963239D01*
X114604282Y-96963239D02*
X114736081Y-96833348D01*
X114736081Y-96833348D02*
X114845482Y-96685889D01*
X114845482Y-96685889D02*
X114931382Y-96521829D01*
X114931382Y-96521829D02*
X114988982Y-96347029D01*
X114988982Y-96347029D02*
X115183382Y-95571629D01*
X115183382Y-95571629D02*
X115204882Y-95483738D01*
X115204882Y-95483738D02*
X115278081Y-95319681D01*
X115278081Y-95319681D02*
X115377682Y-95172220D01*
X115366482Y-79625109D02*
X112028582Y-93014799D01*
X115377682Y-95172220D02*
X115502681Y-95042337D01*
X115502681Y-95042337D02*
X115647281Y-94936868D01*
X115647281Y-94936868D02*
X115808381Y-94856790D01*
X115808381Y-94856790D02*
X115981181Y-94809915D01*
X115981181Y-94809915D02*
X116159882Y-94791361D01*
X116159882Y-94791361D02*
X116338681Y-94801126D01*
X116338681Y-94801126D02*
X116425581Y-94825540D01*
X116425581Y-94825540D02*
X130785881Y-98405619D01*
X116625281Y-74579208D02*
X103234581Y-71241409D01*
X117800081Y-91362458D02*
X121137981Y-77971809D01*
X119963082Y-61189609D02*
X116625281Y-74579208D01*
X121137981Y-77971809D02*
X134528581Y-81310709D01*
X121220981Y-56143709D02*
X107831581Y-52805809D01*
X122395781Y-72926908D02*
X125734581Y-59536309D01*
X124559781Y-42754009D02*
X121220981Y-56143709D01*
X125379682Y-124561909D02*
X125406982Y-124744509D01*
X125381582Y-124376309D02*
X125379682Y-124561909D01*
X125406982Y-124744509D02*
X125462681Y-124919309D01*
X125411881Y-124196609D02*
X125381582Y-124376309D01*
X125462681Y-124919309D02*
X125544681Y-125085308D01*
X125544681Y-125085308D02*
X125652081Y-125233709D01*
X125652081Y-125233709D02*
X125780982Y-125366509D01*
X125734581Y-59536309D02*
X139125281Y-62875109D01*
X125780982Y-125366509D02*
X125929482Y-125476908D01*
X125929482Y-125476908D02*
X126092581Y-125561908D01*
X125934381Y-39326509D02*
X109633581Y-35262109D01*
X126021281Y-39348008D02*
X125934381Y-39326509D01*
X126092581Y-125561908D02*
X126267382Y-125620509D01*
X126199981Y-39360709D02*
X126021281Y-39348008D01*
X126267382Y-125620509D02*
X144311281Y-130118508D01*
X126378682Y-39342109D02*
X126199981Y-39360709D01*
X126550582Y-39292309D02*
X126378682Y-39342109D01*
X126711681Y-39212208D02*
X126550582Y-39292309D01*
X126857182Y-39106809D02*
X126711681Y-39212208D01*
X126982182Y-38979809D02*
X126857182Y-39106809D01*
X126992381Y-54491408D02*
X130331281Y-41100708D01*
X127081781Y-38829409D02*
X126982182Y-38979809D01*
X127155081Y-38667309D02*
X127081781Y-38829409D01*
X127176482Y-38580409D02*
X127155081Y-38667309D01*
X127369882Y-37802108D02*
X127176482Y-38580409D01*
X127428481Y-37628308D02*
X127369882Y-37802108D01*
X127513482Y-37464208D02*
X127428481Y-37628308D01*
X127623781Y-37315809D02*
X127513482Y-37464208D01*
X127754682Y-37188808D02*
X127623781Y-37315809D01*
X127905081Y-37080408D02*
X127754682Y-37188808D01*
X128070081Y-36998409D02*
X127905081Y-37080408D01*
X128245881Y-36942709D02*
X128070081Y-36998409D01*
X128428482Y-36916409D02*
X128245881Y-36942709D01*
X128613081Y-36916408D02*
X128428482Y-36916409D01*
X128794682Y-36947608D02*
X128613081Y-36916408D01*
X129582281Y-122641709D02*
X132921181Y-109252109D01*
X130331281Y-41100708D02*
X143720982Y-44439609D01*
X130785881Y-98405619D02*
X130872782Y-98426129D01*
X130872782Y-98426129D02*
X131036882Y-98500349D01*
X131036882Y-98500349D02*
X131185281Y-98597999D01*
X131185281Y-98597999D02*
X131314182Y-98724959D01*
X131189682Y-94701321D02*
X117800081Y-91362458D01*
X131314182Y-98724959D02*
X131419682Y-98868509D01*
X131419682Y-98868509D02*
X131498781Y-99029639D01*
X131498781Y-99029639D02*
X131547582Y-99201518D01*
X131532982Y-99645849D02*
X125411881Y-124196609D01*
X131547582Y-99201518D02*
X131567182Y-99381209D01*
X131554482Y-99561869D02*
X131532982Y-99645849D01*
X131567182Y-99381209D02*
X131554482Y-99561869D01*
X132921181Y-109252109D02*
X146310782Y-112590009D01*
X134528581Y-81310709D02*
X131189682Y-94701321D01*
X135025581Y-100810699D02*
X138364481Y-87420068D01*
X135786381Y-76265809D02*
X122395781Y-72926908D01*
X138364481Y-87420068D02*
X151754182Y-90758939D01*
X139125281Y-62875109D02*
X135786381Y-76265809D01*
X139622282Y-82375109D02*
X142961181Y-68984509D01*
X140383081Y-57829209D02*
X126992381Y-54491408D01*
X142961181Y-68984509D02*
X156350782Y-72323409D01*
X142972881Y-125980609D02*
X129582281Y-122641709D01*
X143720982Y-44439609D02*
X140383081Y-57829209D01*
X144218981Y-63939609D02*
X147556881Y-50549009D01*
X144311281Y-130118508D02*
X144358182Y-130131209D01*
X144358182Y-130131209D02*
X144450981Y-130163409D01*
X144450981Y-130163409D02*
X144540781Y-130205409D01*
X144540781Y-130205409D02*
X144582782Y-130228909D01*
X144582782Y-130228909D02*
X160429482Y-139563809D01*
X146310782Y-112590009D02*
X142972881Y-125980609D01*
X147556881Y-50549009D02*
X160947482Y-53887809D01*
X148415282Y-104148588D02*
X135025581Y-100810699D01*
X148425981Y-128212108D02*
X155429882Y-116321408D01*
X151754182Y-90758939D02*
X148415282Y-104148588D01*
X152614482Y-108802909D02*
X155953382Y-95413235D01*
X153011981Y-85713039D02*
X139622282Y-82375109D01*
X155429882Y-116321408D02*
X167320581Y-123325309D01*
X155953382Y-95413235D02*
X169342982Y-98751129D01*
X156350782Y-72323409D02*
X153011981Y-85713039D01*
X157211181Y-90367339D02*
X160550082Y-76977709D01*
X157608682Y-67277508D02*
X144218981Y-63939609D01*
X160316682Y-135216009D02*
X148425981Y-128212108D01*
X160429482Y-139563809D02*
X160471481Y-139590209D01*
X160471481Y-139590209D02*
X160551482Y-139645809D01*
X160550082Y-76977709D02*
X173939681Y-80315608D01*
X160551482Y-139645809D02*
X160624782Y-139712208D01*
X160624782Y-139712208D02*
X160658981Y-139749409D01*
X160658981Y-139749409D02*
X173340582Y-153349009D01*
X160947482Y-53887809D02*
X157608682Y-67277508D01*
X161807882Y-71931808D02*
X165145782Y-58541209D01*
X164912382Y-138903509D02*
X175004182Y-129492308D01*
X165145782Y-58541209D02*
X178536381Y-61880008D01*
X166005081Y-112141709D02*
X152614482Y-108802909D01*
X167320581Y-123325309D02*
X160316682Y-135216009D01*
X168639382Y-116899709D02*
X168652082Y-116729808D01*
X168652082Y-116729808D02*
X168672582Y-116645809D01*
X168654081Y-117068709D02*
X168639382Y-116899709D01*
X168672582Y-116645809D02*
X174902081Y-91660498D01*
X168697081Y-117232809D02*
X168654081Y-117068709D01*
X168766382Y-117389009D02*
X168697081Y-117232809D01*
X168860081Y-117531609D02*
X168766382Y-117389009D01*
X168917782Y-117593109D02*
X168860081Y-117531609D01*
X169342982Y-98751129D02*
X166005081Y-112141709D01*
X170600781Y-93706204D02*
X157211181Y-90367339D01*
X173340582Y-153349009D02*
X173476381Y-153473008D01*
X173476381Y-153473008D02*
X173630581Y-153573609D01*
X173630581Y-153573609D02*
X173797582Y-153649708D01*
X173797582Y-153649708D02*
X173976381Y-153700509D01*
X173939681Y-80315608D02*
X170600781Y-93706204D01*
X173976381Y-153700509D02*
X174158982Y-153722009D01*
X174158982Y-153722009D02*
X174343481Y-153713209D01*
X174323482Y-148996209D02*
X164912382Y-138903509D01*
X174343481Y-153713209D02*
X174524181Y-153676109D01*
X174524181Y-153676109D02*
X174697082Y-153610709D01*
X174697082Y-153610709D02*
X174857181Y-153520809D01*
X174857181Y-153520809D02*
X175000781Y-153406608D01*
X174902081Y-91660498D02*
X174915081Y-91609258D01*
X175000781Y-153406608D02*
X188750781Y-140585308D01*
X175004182Y-129492308D02*
X184416281Y-139585108D01*
X175197481Y-75270608D02*
X161807882Y-71931808D01*
X178536381Y-61880008D02*
X175197481Y-75270608D01*
X184416281Y-139585108D02*
X174323482Y-148996209D01*
X185046749Y-50973893D02*
X128794682Y-36947608D01*
X188750781Y-140585308D02*
X188751681Y-140582409D01*
X188751681Y-140582409D02*
X188875782Y-140447608D01*
X188809381Y-138923208D02*
X168917782Y-117593109D01*
X188875782Y-140447608D02*
X188977281Y-140294309D01*
X188923582Y-139068709D02*
X188809381Y-138923208D01*
X188977281Y-140294309D02*
X189053482Y-140127309D01*
X189014382Y-139227908D02*
X188923582Y-139068709D01*
X189053482Y-140127309D02*
X189103281Y-139949609D01*
X189078882Y-139402709D02*
X189014382Y-139227908D01*
X189103281Y-139949609D02*
X189123782Y-139767909D01*
X189115981Y-139582409D02*
X189078882Y-139402709D01*
X189123782Y-139767909D02*
X189115981Y-139582409D01*
M02*
