%TF.GenerationSoftware,KiCad,Pcbnew,10.0.6*%
%TF.CreationDate,2026-09-13T22:06:55+02:00*%
%TF.ProjectId,fairyboard_plate,66616972-7962-46f6-9172-645f706c6174,rev?*%
%TF.SameCoordinates,Original*%
%TF.FileFunction,Legend,Top*%
%TF.FilePolarity,Positive*%
%FSLAX46Y46*%
G04 Gerber Fmt 4.6, Leading zero omitted, Abs format (unit mm)*
G04 Created by KiCad (PCBNEW 10.0.6) date 2026-09-13 22:06:55*
%MOMM*%
%LPD*%
G01*
G04 APERTURE LIST*
%ADD10C,0.300000*%
G04 APERTURE END LIST*
D10*
G36*
X168019755Y-51133553D02*
G01*
X168089688Y-51175255D01*
X168137177Y-51252978D01*
X168141076Y-51323896D01*
X168139179Y-51331190D01*
X168109477Y-51410583D01*
X168062219Y-51495703D01*
X167992122Y-51592857D01*
X167903916Y-51692624D01*
X167798096Y-51793627D01*
X167676722Y-51892854D01*
X167405950Y-52069889D01*
X167114917Y-52208234D01*
X166819467Y-52301753D01*
X167043598Y-52357635D01*
X166984459Y-52420671D01*
X166695275Y-52348570D01*
X166199724Y-52911848D01*
X165637885Y-53544162D01*
X165301938Y-53881916D01*
X165040427Y-54099008D01*
X164821713Y-54234783D01*
X164628821Y-54310107D01*
X164449716Y-54336142D01*
X164361980Y-54331964D01*
X164274161Y-54316049D01*
X164187533Y-54285878D01*
X164123717Y-54250265D01*
X164068850Y-54206491D01*
X163989253Y-54100135D01*
X163952999Y-53977873D01*
X163962112Y-53848773D01*
X163999907Y-53752533D01*
X164041655Y-53688865D01*
X164093227Y-53632281D01*
X164214182Y-53548639D01*
X164339374Y-53510855D01*
X164455944Y-53517293D01*
X164484818Y-53527366D01*
X164527341Y-53553997D01*
X164562792Y-53591029D01*
X164604890Y-53682703D01*
X164603876Y-53775060D01*
X164594579Y-53802247D01*
X164569438Y-53842822D01*
X164534254Y-53875650D01*
X164489692Y-53900373D01*
X164438854Y-53914903D01*
X164332016Y-53910605D01*
X164279609Y-53883405D01*
X164249649Y-53841202D01*
X164223879Y-53771125D01*
X164334996Y-53765632D01*
X164366516Y-53737402D01*
X164370452Y-53709275D01*
X164352829Y-53642994D01*
X164307257Y-53610108D01*
X164259260Y-53614367D01*
X164207039Y-53639006D01*
X164151093Y-53680314D01*
X164059596Y-53786655D01*
X164010038Y-53899613D01*
X164008521Y-53906080D01*
X164003003Y-53961871D01*
X164010214Y-54016945D01*
X164030953Y-54074127D01*
X164063749Y-54127486D01*
X164107952Y-54176190D01*
X164161630Y-54217717D01*
X164285328Y-54271258D01*
X164352273Y-54281802D01*
X164419475Y-54280388D01*
X164555637Y-54243584D01*
X164695775Y-54164628D01*
X164841852Y-54047303D01*
X164995829Y-53895393D01*
X165159670Y-53712680D01*
X165524789Y-53269982D01*
X165908654Y-52801967D01*
X166362148Y-52286508D01*
X166758324Y-52286508D01*
X166854080Y-52245599D01*
X167055374Y-52149933D01*
X167234217Y-52051903D01*
X167399903Y-51947262D01*
X167542479Y-51843320D01*
X167669122Y-51736187D01*
X167772341Y-51633778D01*
X167854731Y-51536312D01*
X167915312Y-51448011D01*
X167974021Y-51316982D01*
X167980343Y-51283807D01*
X167973483Y-51214271D01*
X167957825Y-51193290D01*
X167934172Y-51181501D01*
X167896844Y-51185736D01*
X167844104Y-51211098D01*
X167703037Y-51313312D01*
X167527588Y-51467735D01*
X167264657Y-51725249D01*
X167013408Y-51990880D01*
X166758324Y-52286508D01*
X166362148Y-52286508D01*
X166377297Y-52269289D01*
X166132903Y-52208354D01*
X166191864Y-52145274D01*
X166440345Y-52207227D01*
X166530267Y-52116498D01*
X166915488Y-51755260D01*
X167268540Y-51465443D01*
X167548690Y-51275240D01*
X167758048Y-51170365D01*
X167909837Y-51129163D01*
X168019755Y-51133553D01*
G37*
G36*
X168019741Y-52445074D02*
G01*
X168062521Y-52457309D01*
X168142478Y-52501278D01*
X168175527Y-52540084D01*
X168203146Y-52594637D01*
X168257180Y-52561837D01*
X168304018Y-52555032D01*
X168469111Y-52622058D01*
X168502161Y-52613795D01*
X168546058Y-52587405D01*
X168574652Y-52569422D01*
X168631092Y-52545584D01*
X167847218Y-53414917D01*
X167801710Y-53466431D01*
X167752227Y-53533250D01*
X167731146Y-53585151D01*
X167728770Y-53599812D01*
X167744155Y-53654172D01*
X167766842Y-53674910D01*
X167800608Y-53688936D01*
X167867013Y-53687380D01*
X167983331Y-53652731D01*
X168132553Y-53587835D01*
X168350269Y-53473783D01*
X168589001Y-53332425D01*
X169043911Y-53025147D01*
X169069347Y-53061695D01*
X168675327Y-53340494D01*
X168291924Y-53573732D01*
X168027662Y-53698412D01*
X167860496Y-53745444D01*
X167760835Y-53743963D01*
X167713621Y-53729460D01*
X167657778Y-53702568D01*
X167613865Y-53668728D01*
X167574875Y-53620408D01*
X167546799Y-53563529D01*
X167511126Y-53426459D01*
X167358512Y-53529509D01*
X167284912Y-53561117D01*
X167216765Y-53578066D01*
X167137917Y-53581851D01*
X167063913Y-53570201D01*
X167041090Y-53563481D01*
X166951021Y-53509496D01*
X166916269Y-53468014D01*
X166892588Y-53422608D01*
X167064904Y-53422608D01*
X167071518Y-53483784D01*
X167090862Y-53506034D01*
X167124126Y-53520270D01*
X167183783Y-53526733D01*
X167278266Y-53506250D01*
X167366585Y-53458389D01*
X167445824Y-53395919D01*
X167513065Y-53331604D01*
X167890638Y-52937301D01*
X168086683Y-52712599D01*
X168123879Y-52652843D01*
X168127266Y-52625678D01*
X168110276Y-52566264D01*
X168062581Y-52533726D01*
X168046054Y-52530193D01*
X167980582Y-52526413D01*
X167911697Y-52536802D01*
X167822214Y-52567401D01*
X167730531Y-52614844D01*
X167615372Y-52693461D01*
X167502883Y-52788143D01*
X167382818Y-52907746D01*
X167275521Y-53032297D01*
X167129212Y-53244378D01*
X167076046Y-53365557D01*
X167064904Y-53422608D01*
X166892588Y-53422608D01*
X166889805Y-53417272D01*
X166871737Y-53354343D01*
X166864365Y-53281635D01*
X166869037Y-53194900D01*
X166887368Y-53097819D01*
X166915394Y-53013199D01*
X166956904Y-52928369D01*
X167013396Y-52841475D01*
X167082233Y-52757924D01*
X167247998Y-52611187D01*
X167435683Y-52503085D01*
X167631282Y-52439166D01*
X167827022Y-52419930D01*
X168019741Y-52445074D01*
G37*
G36*
X169982349Y-52432414D02*
G01*
X169979162Y-52355120D01*
X169960740Y-52318397D01*
X169931911Y-52287473D01*
X169870279Y-52257216D01*
X169777782Y-52256451D01*
X169687064Y-52299545D01*
X169650044Y-52336060D01*
X169622376Y-52380650D01*
X169609498Y-52417234D01*
X169610703Y-52501155D01*
X169655040Y-52575979D01*
X169724869Y-52614777D01*
X169806417Y-52612950D01*
X169894927Y-52566597D01*
X169934732Y-52526526D01*
X169965423Y-52478482D01*
X169982349Y-52432414D01*
G37*
G36*
X170025771Y-53300159D02*
G01*
X170000157Y-53263566D01*
X169529087Y-53577830D01*
X169232232Y-53756484D01*
X168975521Y-53886729D01*
X168889723Y-53916235D01*
X168832244Y-53920287D01*
X168798848Y-53906250D01*
X168775426Y-53884598D01*
X168756594Y-53823950D01*
X168760899Y-53789980D01*
X168783912Y-53729602D01*
X168835010Y-53651209D01*
X168840200Y-53645316D01*
X169603690Y-52788080D01*
X169548571Y-52806839D01*
X169500430Y-52835035D01*
X169452383Y-52862809D01*
X169418388Y-52871766D01*
X169383088Y-52848947D01*
X169359609Y-52826478D01*
X169288880Y-52800585D01*
X169244637Y-52795415D01*
X169213346Y-52804472D01*
X169170167Y-52844531D01*
X169157542Y-52858647D01*
X169014610Y-53007089D01*
X168860982Y-53166183D01*
X168713666Y-53334254D01*
X168593508Y-53505470D01*
X168550129Y-53590434D01*
X168521357Y-53673996D01*
X168512221Y-53734125D01*
X168515344Y-53789076D01*
X168529463Y-53837819D01*
X168553574Y-53880692D01*
X168630854Y-53948913D01*
X168713171Y-53981407D01*
X168817774Y-53984556D01*
X168978440Y-53941715D01*
X169219096Y-53829879D01*
X169562829Y-53622571D01*
X170025771Y-53300159D01*
G37*
G36*
X170239872Y-52902451D02*
G01*
X170284792Y-52949446D01*
X170290380Y-53011208D01*
X170265122Y-53068648D01*
X170219335Y-53130729D01*
X170077547Y-53256808D01*
X170164281Y-53215152D01*
X170339468Y-53133107D01*
X170485173Y-53083001D01*
X170575654Y-53082335D01*
X170633602Y-53112820D01*
X170661225Y-53146704D01*
X170678141Y-53187539D01*
X170678584Y-53276776D01*
X170639688Y-53357930D01*
X170580783Y-53419190D01*
X170543280Y-53455241D01*
X170084056Y-53925049D01*
X170002914Y-54013340D01*
X169965082Y-54072848D01*
X169960699Y-54098694D01*
X169963429Y-54136744D01*
X169977259Y-54167092D01*
X170005724Y-54193615D01*
X170043584Y-54209282D01*
X170147523Y-54216566D01*
X170238619Y-54200479D01*
X170336704Y-54167391D01*
X170476040Y-54100443D01*
X170622846Y-54011680D01*
X170910640Y-53801224D01*
X171196175Y-53561767D01*
X171221789Y-53598359D01*
X171153665Y-53660159D01*
X170776824Y-53973040D01*
X170497668Y-54158053D01*
X170280131Y-54256831D01*
X170183042Y-54282811D01*
X170093687Y-54294642D01*
X169988038Y-54292376D01*
X169888749Y-54274511D01*
X169833047Y-54252633D01*
X169794854Y-54224140D01*
X169765154Y-54186986D01*
X169742713Y-54137147D01*
X169730903Y-54078121D01*
X169730549Y-54003018D01*
X169743865Y-53918200D01*
X169782801Y-53834566D01*
X169856279Y-53739384D01*
X170051911Y-53538458D01*
X170225387Y-53357973D01*
X170263014Y-53294366D01*
X170266792Y-53270506D01*
X170253752Y-53261851D01*
X170201152Y-53264884D01*
X170149526Y-53289563D01*
X170058804Y-53327256D01*
X169965586Y-53324232D01*
X169938766Y-53312826D01*
X169913595Y-53287787D01*
X169898582Y-53252806D01*
X169893812Y-53202679D01*
X169967213Y-53202679D01*
X169977788Y-53229387D01*
X169999032Y-53241575D01*
X170067043Y-53186341D01*
X170190756Y-53063725D01*
X170228218Y-53000051D01*
X170228640Y-52979552D01*
X170220183Y-52964464D01*
X170200555Y-52954263D01*
X170160715Y-52956173D01*
X170117582Y-52976824D01*
X170061535Y-53023435D01*
X170013138Y-53081017D01*
X169971525Y-53161088D01*
X169967213Y-53202679D01*
X169893812Y-53202679D01*
X169893769Y-53202229D01*
X169902384Y-53143849D01*
X169948336Y-53046548D01*
X170045154Y-52946308D01*
X170141134Y-52896603D01*
X170215799Y-52893121D01*
X170239872Y-52902451D01*
G37*
G36*
X171027663Y-54130110D02*
G01*
X170937576Y-54239566D01*
X170908577Y-54312430D01*
X170902048Y-54346481D01*
X170907053Y-54411665D01*
X170920162Y-54430802D01*
X170941270Y-54441784D01*
X171004921Y-54442084D01*
X171169048Y-54407020D01*
X171318613Y-54340178D01*
X171430171Y-54251989D01*
X172048994Y-53592594D01*
X172049969Y-53591537D01*
X172067611Y-53572755D01*
X172125711Y-53528534D01*
X172187477Y-53523287D01*
X172239588Y-53542512D01*
X172269909Y-53563275D01*
X172326004Y-53592374D01*
X172360600Y-53583780D01*
X172408746Y-53556616D01*
X172446348Y-53534694D01*
X172506376Y-53511800D01*
X172405648Y-53626019D01*
X172146433Y-53919153D01*
X171748738Y-54332845D01*
X171366200Y-54681961D01*
X171529132Y-54623397D01*
X171666211Y-54561357D01*
X171902912Y-54428114D01*
X172088107Y-54320880D01*
X172752118Y-53949707D01*
X172777554Y-53986255D01*
X172111682Y-54365649D01*
X171947427Y-54459351D01*
X171868047Y-54505171D01*
X171620071Y-54631133D01*
X171481291Y-54684031D01*
X171314340Y-54733975D01*
X171118531Y-54953585D01*
X170966270Y-55127766D01*
X170759085Y-55336045D01*
X170582289Y-55469539D01*
X170422044Y-55546290D01*
X170269577Y-55575925D01*
X170116857Y-55560786D01*
X170088023Y-55552419D01*
X170027022Y-55525982D01*
X169973673Y-55490312D01*
X169894834Y-55397528D01*
X169857587Y-55285965D01*
X169855520Y-55226382D01*
X169856351Y-55220997D01*
X169892510Y-55220997D01*
X169899265Y-55265422D01*
X169917159Y-55305524D01*
X169945098Y-55339261D01*
X169982127Y-55365388D01*
X170027088Y-55382463D01*
X170116910Y-55392584D01*
X170178932Y-55383930D01*
X170246883Y-55360833D01*
X170342306Y-55309755D01*
X170455675Y-55230074D01*
X170684717Y-55035541D01*
X170991398Y-54744264D01*
X170710649Y-54771265D01*
X170398768Y-54822174D01*
X170185061Y-54887709D01*
X170041285Y-54966451D01*
X169949123Y-55058526D01*
X169898555Y-55168800D01*
X169897568Y-55172931D01*
X169892510Y-55220997D01*
X169856351Y-55220997D01*
X169865054Y-55164601D01*
X169877861Y-55123270D01*
X169908577Y-55059973D01*
X169950110Y-55003629D01*
X170010965Y-54946119D01*
X170083778Y-54896776D01*
X170190445Y-54845080D01*
X170310820Y-54803890D01*
X170475978Y-54765054D01*
X170652072Y-54737715D01*
X171013811Y-54706619D01*
X171271347Y-54402878D01*
X171108301Y-54465891D01*
X170926615Y-54509682D01*
X170817089Y-54505973D01*
X170761892Y-54484328D01*
X170723003Y-54455651D01*
X170692628Y-54418460D01*
X170670237Y-54370637D01*
X170658367Y-54314937D01*
X170657826Y-54248409D01*
X170670222Y-54175031D01*
X170723241Y-54052713D01*
X170802336Y-53939700D01*
X171290929Y-53403587D01*
X171296912Y-53396944D01*
X171376344Y-53342041D01*
X171429413Y-53334280D01*
X171482953Y-53353919D01*
X171519492Y-53376318D01*
X171580381Y-53406469D01*
X171616857Y-53397677D01*
X171664539Y-53369205D01*
X171699364Y-53347560D01*
X171756487Y-53324832D01*
X171027663Y-54130110D01*
G37*
G36*
X174582612Y-52626943D02*
G01*
X174627250Y-52651934D01*
X174653041Y-52687392D01*
X174668378Y-52731909D01*
X174666310Y-52829616D01*
X174663267Y-52841306D01*
X174631570Y-52930562D01*
X174586804Y-53016401D01*
X174519185Y-53113180D01*
X174437968Y-53204760D01*
X174323123Y-53309927D01*
X174196161Y-53406437D01*
X174023183Y-53516774D01*
X173847779Y-53611257D01*
X173646055Y-53703188D01*
X173472654Y-53768857D01*
X173304053Y-53814518D01*
X173050102Y-54101590D01*
X172738538Y-54452164D01*
X172601001Y-54639638D01*
X172552738Y-54744076D01*
X172548702Y-54793900D01*
X172557929Y-54830305D01*
X172577854Y-54862025D01*
X172609054Y-54888342D01*
X172650717Y-54906888D01*
X172689986Y-54910514D01*
X172763661Y-54893632D01*
X172847819Y-54854380D01*
X172985815Y-54764373D01*
X173119301Y-54656903D01*
X173292172Y-54486858D01*
X173281552Y-54476011D01*
X173232547Y-54397195D01*
X173207583Y-54284221D01*
X173213491Y-54228248D01*
X173267107Y-54228248D01*
X173276470Y-54344048D01*
X173296943Y-54395757D01*
X173328887Y-54444095D01*
X173372773Y-54383185D01*
X173391101Y-54358473D01*
X173482996Y-54213370D01*
X173544602Y-54047614D01*
X173556090Y-53986643D01*
X173549361Y-53917214D01*
X173531822Y-53894717D01*
X173503667Y-53881656D01*
X173501154Y-53881070D01*
X173464540Y-53881337D01*
X173428815Y-53896660D01*
X173383684Y-53936845D01*
X173343187Y-53994713D01*
X173306680Y-54070918D01*
X173279789Y-54154898D01*
X173267107Y-54228248D01*
X173213491Y-54228248D01*
X173222734Y-54140673D01*
X173229172Y-54116826D01*
X173294435Y-53968188D01*
X173376470Y-53870492D01*
X173460233Y-53824086D01*
X173544459Y-53822541D01*
X173563945Y-53827757D01*
X173680497Y-53880372D01*
X173752820Y-53955198D01*
X173775044Y-54003301D01*
X173786826Y-54058555D01*
X173787147Y-54126988D01*
X173773773Y-54204434D01*
X173762050Y-54244459D01*
X173717345Y-54351285D01*
X173661400Y-54450625D01*
X173583573Y-54550828D01*
X173633013Y-54559857D01*
X173817621Y-54568080D01*
X174011619Y-54538070D01*
X174199713Y-54467616D01*
X174377025Y-54354842D01*
X174402461Y-54391390D01*
X174308367Y-54459841D01*
X174214132Y-54514562D01*
X174110054Y-54560551D01*
X174007318Y-54592439D01*
X173894186Y-54613328D01*
X173784911Y-54620334D01*
X173661376Y-54613509D01*
X173546858Y-54593591D01*
X173381601Y-54724074D01*
X173142480Y-54850938D01*
X172910362Y-54929855D01*
X172720033Y-54957862D01*
X172576368Y-54944610D01*
X172477639Y-54898889D01*
X172436698Y-54861055D01*
X172404954Y-54815351D01*
X172382256Y-54760902D01*
X172370360Y-54700331D01*
X172369852Y-54633529D01*
X172381575Y-54562828D01*
X172392183Y-54523672D01*
X172438348Y-54394279D01*
X172500132Y-54263827D01*
X172593454Y-54104528D01*
X172701567Y-53948672D01*
X172848400Y-53765011D01*
X172860685Y-53751448D01*
X173345643Y-53751448D01*
X173422709Y-53729367D01*
X173553807Y-53678975D01*
X173680375Y-53615608D01*
X173825440Y-53525763D01*
X173960728Y-53425518D01*
X174109858Y-53295964D01*
X174238699Y-53166154D01*
X174348131Y-53039399D01*
X174428395Y-52930955D01*
X174484953Y-52827821D01*
X174493240Y-52796793D01*
X174496954Y-52719433D01*
X174471671Y-52690279D01*
X174429544Y-52695993D01*
X174367633Y-52726213D01*
X174238102Y-52815738D01*
X174083450Y-52943837D01*
X173763975Y-53254077D01*
X173570641Y-53467899D01*
X173372640Y-53716847D01*
X173345643Y-53751448D01*
X172860685Y-53751448D01*
X173001412Y-53596075D01*
X173165925Y-53433613D01*
X173314925Y-53302210D01*
X173411160Y-53223322D01*
X173788670Y-52938352D01*
X174080444Y-52756939D01*
X174299691Y-52657879D01*
X174461944Y-52619976D01*
X174582612Y-52626943D01*
G37*
G36*
X175107157Y-54212165D02*
G01*
X175150654Y-54226309D01*
X175205433Y-54255143D01*
X175252722Y-54293561D01*
X175292948Y-54341975D01*
X175323918Y-54398171D01*
X175345111Y-54461533D01*
X175355520Y-54530345D01*
X175354546Y-54602464D01*
X175341721Y-54677491D01*
X175314823Y-54755296D01*
X175278945Y-54822788D01*
X175199902Y-54931002D01*
X175162644Y-54979272D01*
X175295964Y-54964748D01*
X175472148Y-54918753D01*
X175630130Y-54857671D01*
X175878580Y-54729221D01*
X175904016Y-54765770D01*
X175900675Y-54768217D01*
X175795027Y-54833275D01*
X175663526Y-54895560D01*
X175494010Y-54959717D01*
X175309280Y-55015832D01*
X175284198Y-55019024D01*
X175110607Y-55031241D01*
X175106792Y-55035027D01*
X174938943Y-55165844D01*
X174734368Y-55275378D01*
X174532611Y-55341669D01*
X174345919Y-55363463D01*
X174175858Y-55343408D01*
X174152731Y-55336595D01*
X174098285Y-55311040D01*
X174052004Y-55275444D01*
X174010003Y-55225864D01*
X173987754Y-55185451D01*
X174135894Y-55185451D01*
X174141848Y-55254201D01*
X174159784Y-55277062D01*
X174189064Y-55290441D01*
X174227288Y-55296870D01*
X174285726Y-55295363D01*
X174348250Y-55280373D01*
X174429554Y-55244029D01*
X174519907Y-55186584D01*
X174656994Y-55075788D01*
X174817313Y-54923378D01*
X174705912Y-54837506D01*
X174647943Y-54752356D01*
X174638871Y-54709421D01*
X174642948Y-54667892D01*
X174661817Y-54622493D01*
X174688674Y-54591880D01*
X174721738Y-54572841D01*
X174761106Y-54564786D01*
X174801672Y-54568895D01*
X174817004Y-54573661D01*
X174860943Y-54608926D01*
X174869625Y-54638303D01*
X174866027Y-54675748D01*
X174837937Y-54715178D01*
X174793983Y-54730352D01*
X174735665Y-54729900D01*
X174735947Y-54732965D01*
X174754191Y-54785863D01*
X174789933Y-54835044D01*
X174859988Y-54890785D01*
X174915321Y-54821442D01*
X175071287Y-54593914D01*
X175122583Y-54486600D01*
X175155026Y-54384383D01*
X175159544Y-54357944D01*
X175145867Y-54297069D01*
X175120681Y-54273392D01*
X175082706Y-54257986D01*
X175036667Y-54254375D01*
X174984134Y-54263856D01*
X174897935Y-54298633D01*
X174803536Y-54354725D01*
X174682510Y-54446000D01*
X174560384Y-54555890D01*
X174337469Y-54802610D01*
X174200866Y-55003752D01*
X174146091Y-55132659D01*
X174135894Y-55185451D01*
X173987754Y-55185451D01*
X173978195Y-55168087D01*
X173955498Y-55099912D01*
X173944453Y-55027751D01*
X173956449Y-54886203D01*
X173985029Y-54796876D01*
X174024602Y-54711702D01*
X174079877Y-54623052D01*
X174145984Y-54540732D01*
X174225376Y-54462009D01*
X174313614Y-54391724D01*
X174410092Y-54330098D01*
X174512401Y-54278635D01*
X174721751Y-54210667D01*
X174923636Y-54189575D01*
X175107157Y-54212165D01*
G37*
G36*
X176588271Y-54581449D02*
G01*
X176631052Y-54593684D01*
X176711009Y-54637652D01*
X176744058Y-54676459D01*
X176771677Y-54731011D01*
X176825711Y-54698212D01*
X176872548Y-54691406D01*
X177037641Y-54758433D01*
X177070692Y-54750170D01*
X177114589Y-54723780D01*
X177143182Y-54705797D01*
X177199623Y-54681958D01*
X176415748Y-55551292D01*
X176370241Y-55602805D01*
X176320757Y-55669625D01*
X176299676Y-55721526D01*
X176297300Y-55736187D01*
X176312685Y-55790547D01*
X176335373Y-55811285D01*
X176369139Y-55825310D01*
X176435544Y-55823754D01*
X176551862Y-55789106D01*
X176701083Y-55724209D01*
X176918799Y-55610158D01*
X177157531Y-55468799D01*
X177612442Y-55161522D01*
X177637878Y-55198070D01*
X177243858Y-55476869D01*
X176860455Y-55710107D01*
X176596192Y-55834787D01*
X176429026Y-55881819D01*
X176329366Y-55880338D01*
X176282152Y-55865835D01*
X176226309Y-55838943D01*
X176182395Y-55805102D01*
X176143406Y-55756783D01*
X176115329Y-55699904D01*
X176079656Y-55562834D01*
X175927042Y-55665884D01*
X175853443Y-55697492D01*
X175785295Y-55714440D01*
X175706448Y-55718225D01*
X175632444Y-55706575D01*
X175609621Y-55699856D01*
X175519552Y-55645870D01*
X175484799Y-55604389D01*
X175461118Y-55558982D01*
X175633434Y-55558982D01*
X175640049Y-55620159D01*
X175659392Y-55642409D01*
X175692657Y-55656644D01*
X175752313Y-55663108D01*
X175846796Y-55642624D01*
X175935116Y-55594764D01*
X176014355Y-55532293D01*
X176081595Y-55467978D01*
X176459168Y-55073676D01*
X176655213Y-54848974D01*
X176692409Y-54789218D01*
X176695797Y-54762052D01*
X176678807Y-54702639D01*
X176631112Y-54670100D01*
X176614585Y-54666568D01*
X176549113Y-54662788D01*
X176480228Y-54673177D01*
X176390745Y-54703776D01*
X176299061Y-54751219D01*
X176183902Y-54829836D01*
X176071413Y-54924518D01*
X175951349Y-55044120D01*
X175844052Y-55168672D01*
X175697742Y-55380753D01*
X175644577Y-55501931D01*
X175633434Y-55558982D01*
X175461118Y-55558982D01*
X175458336Y-55553647D01*
X175440268Y-55490717D01*
X175432895Y-55418009D01*
X175437567Y-55331274D01*
X175455898Y-55234193D01*
X175483924Y-55149573D01*
X175525434Y-55064743D01*
X175581926Y-54977849D01*
X175650764Y-54894299D01*
X175816528Y-54747561D01*
X176004214Y-54639460D01*
X176199813Y-54575540D01*
X176395552Y-54556305D01*
X176588271Y-54581449D01*
G37*
G36*
X177852868Y-54800584D02*
G01*
X177897788Y-54847579D01*
X177903376Y-54909341D01*
X177878118Y-54966781D01*
X177832331Y-55028862D01*
X177690542Y-55154941D01*
X177777277Y-55113286D01*
X177952463Y-55031240D01*
X178098169Y-54981134D01*
X178188650Y-54980468D01*
X178246598Y-55010953D01*
X178274221Y-55044837D01*
X178291137Y-55085672D01*
X178291580Y-55174909D01*
X178252684Y-55256063D01*
X178193778Y-55317323D01*
X178156275Y-55353374D01*
X177697052Y-55823182D01*
X177615910Y-55911473D01*
X177578078Y-55970981D01*
X177573694Y-55996827D01*
X177576425Y-56034877D01*
X177590254Y-56065225D01*
X177618720Y-56091748D01*
X177656580Y-56107415D01*
X177760519Y-56114699D01*
X177851614Y-56098612D01*
X177949700Y-56065524D01*
X178089036Y-55998576D01*
X178235842Y-55909813D01*
X178523636Y-55699357D01*
X178809171Y-55459900D01*
X178834785Y-55496492D01*
X178766661Y-55558292D01*
X178389820Y-55871173D01*
X178110664Y-56056186D01*
X177893127Y-56154964D01*
X177796038Y-56180944D01*
X177706683Y-56192775D01*
X177601034Y-56190509D01*
X177501744Y-56172644D01*
X177446043Y-56150766D01*
X177407850Y-56122273D01*
X177378150Y-56085119D01*
X177355708Y-56035280D01*
X177343899Y-55976254D01*
X177343545Y-55901151D01*
X177356861Y-55816333D01*
X177395797Y-55732699D01*
X177469275Y-55637517D01*
X177664906Y-55436592D01*
X177838383Y-55256106D01*
X177876009Y-55192499D01*
X177879787Y-55168639D01*
X177866748Y-55159984D01*
X177814148Y-55163017D01*
X177762522Y-55187696D01*
X177671800Y-55225389D01*
X177578582Y-55222365D01*
X177551762Y-55210959D01*
X177526591Y-55185920D01*
X177511578Y-55150939D01*
X177506808Y-55100812D01*
X177580209Y-55100812D01*
X177590784Y-55127520D01*
X177612028Y-55139708D01*
X177680039Y-55084474D01*
X177803752Y-54961858D01*
X177841214Y-54898184D01*
X177841636Y-54877685D01*
X177833178Y-54862597D01*
X177813550Y-54852396D01*
X177773711Y-54854306D01*
X177730577Y-54874957D01*
X177674531Y-54921569D01*
X177626134Y-54979150D01*
X177584521Y-55059221D01*
X177580209Y-55100812D01*
X177506808Y-55100812D01*
X177506765Y-55100362D01*
X177515379Y-55041982D01*
X177561332Y-54944681D01*
X177658150Y-54844441D01*
X177754129Y-54794736D01*
X177828795Y-54791254D01*
X177852868Y-54800584D01*
G37*
G36*
X181431653Y-54364996D02*
G01*
X181473883Y-54386718D01*
X181498305Y-54414864D01*
X181514266Y-54451201D01*
X181514309Y-54537014D01*
X181505994Y-54565427D01*
X181470117Y-54645986D01*
X181417009Y-54728285D01*
X181330535Y-54831185D01*
X181224509Y-54934004D01*
X181076762Y-55055123D01*
X180912692Y-55171338D01*
X180722678Y-55289448D01*
X180529282Y-55395224D01*
X180187547Y-55548180D01*
X179959605Y-55616848D01*
X179494907Y-56137789D01*
X179303217Y-56376213D01*
X179264382Y-56443341D01*
X179259843Y-56472123D01*
X179274483Y-56536318D01*
X179294829Y-56557673D01*
X179323463Y-56570591D01*
X179355119Y-56574794D01*
X179428776Y-56566427D01*
X179519983Y-56537678D01*
X179713246Y-56445920D01*
X179953746Y-56304970D01*
X180568805Y-55898626D01*
X180594419Y-55935219D01*
X180568460Y-55952983D01*
X180214296Y-56194070D01*
X179792143Y-56464340D01*
X179551123Y-56588315D01*
X179397615Y-56634428D01*
X179290847Y-56631744D01*
X179277127Y-56628139D01*
X179166652Y-56578199D01*
X179124782Y-56540171D01*
X179092455Y-56493111D01*
X179056440Y-56395730D01*
X179034978Y-56269283D01*
X178986913Y-56305028D01*
X178844186Y-56406684D01*
X178740343Y-56453330D01*
X178674467Y-56458500D01*
X178597161Y-56445762D01*
X178580690Y-56441042D01*
X178528442Y-56416941D01*
X178483504Y-56382067D01*
X178442220Y-56332520D01*
X178424532Y-56299822D01*
X178564825Y-56299822D01*
X178581899Y-56364450D01*
X178600340Y-56384619D01*
X178626719Y-56396873D01*
X178675561Y-56402475D01*
X178724345Y-56395748D01*
X178823521Y-56350775D01*
X178927803Y-56272881D01*
X179040748Y-56172998D01*
X179164267Y-56063454D01*
X179467795Y-55784295D01*
X179611659Y-55614218D01*
X179658987Y-55520184D01*
X179659295Y-55507713D01*
X180060255Y-55507713D01*
X180304906Y-55416555D01*
X180470651Y-55336273D01*
X180626658Y-55246524D01*
X180781828Y-55142480D01*
X180922029Y-55033901D01*
X181044932Y-54924503D01*
X181149170Y-54817192D01*
X181282966Y-54641015D01*
X181336010Y-54522954D01*
X181338332Y-54510858D01*
X181326242Y-54446756D01*
X181284938Y-54415071D01*
X181249090Y-54417361D01*
X181200675Y-54437386D01*
X181072544Y-54522686D01*
X180913338Y-54655072D01*
X180735852Y-54818643D01*
X180377213Y-55175745D01*
X180098979Y-55466794D01*
X180060255Y-55507713D01*
X179659295Y-55507713D01*
X179659753Y-55489133D01*
X179645626Y-55449917D01*
X179619500Y-55414496D01*
X179564133Y-55379674D01*
X179512223Y-55376714D01*
X179450544Y-55389808D01*
X179353291Y-55430671D01*
X179245665Y-55493867D01*
X179113769Y-55589265D01*
X178981410Y-55701475D01*
X178756289Y-55933462D01*
X178624329Y-56114913D01*
X178572502Y-56231945D01*
X178564825Y-56299822D01*
X178424532Y-56299822D01*
X178410646Y-56274154D01*
X178388358Y-56206369D01*
X178377370Y-56134402D01*
X178388997Y-55995703D01*
X178392009Y-55983958D01*
X178424594Y-55884409D01*
X178467445Y-55791974D01*
X178522192Y-55703251D01*
X178586173Y-55622699D01*
X178661756Y-55547532D01*
X178745177Y-55481746D01*
X178838260Y-55423956D01*
X178937222Y-55376674D01*
X179041830Y-55339866D01*
X179149865Y-55314313D01*
X179367855Y-55297956D01*
X179577339Y-55326707D01*
X179636093Y-55349261D01*
X179681726Y-55383553D01*
X179757687Y-55488534D01*
X179825477Y-55420281D01*
X180273634Y-55000257D01*
X180647515Y-54697982D01*
X180939178Y-54505206D01*
X181157113Y-54400153D01*
X181315951Y-54359527D01*
X181431653Y-54364996D01*
G37*
M02*
